<?xml version="1.0" standalone="no"?>
<!DOCTYPE svg PUBLIC "-//W3C//DTD SVG 20010904//EN"
 "http://www.w3.org/TR/2001/REC-SVG-20010904/DTD/svg10.dtd">
<svg version="1.0" xmlns="http://www.w3.org/2000/svg"
 width="512.000000pt" height="512.000000pt" viewBox="0 0 512.000000 512.000000"
 preserveAspectRatio="xMidYMid meet">

<g transform="translate(0.000000,512.000000) scale(0.100000,-0.100000)"
fill="#000000" stroke="none">
<path d="M1315 4362 c-418 -180 -775 -336 -793 -347 -18 -11 -45 -38 -60 -60
l-27 -40 -3 -382 c-1 -211 0 -383 3 -383 3 0 369 104 813 231 444 127 823 235
842 240 24 5 431 -28 1300 -106 696 -63 1273 -115 1283 -115 17 0 18 20 15
364 l-3 364 -30 44 c-17 23 -49 53 -70 65 -31 16 -318 72 -1228 237 -653 119
-1209 216 -1235 215 -39 0 -177 -56 -807 -327z"/>
<path d="M2350 1821 l0 -1358 44 8 c25 4 161 29 303 54 142 25 266 48 276 51
16 5 17 51 17 780 l0 774 320 0 320 0 0 -715 c0 -565 3 -715 13 -715 6 0 212
36 457 81 487 88 502 93 555 167 l30 44 3 989 2 989 -21 0 c-12 0 -536 47
-1165 105 -628 58 -1145 105 -1148 105 -3 0 -6 -611 -6 -1359z"/>
<path d="M1167 2917 l-737 -211 2 -751 3 -750 27 -38 c14 -22 41 -49 60 -61
24 -17 955 -420 1366 -593 l32 -13 0 1315 c0 723 -3 1315 -7 1314 -5 0 -340
-96 -746 -212z"/>
</g>
</svg>
